<svg width="239" height="49" viewBox="0 0 239 49" fill="none" xmlns="http://www.w3.org/2000/svg">
<path d="M238 43.4515L231.383 39.7876L223.155 35.6182L214.927 34.7338L206.699 30.6908L198.471 35.8709L190.243 41.051L182.015 40.9246L173.787 36.8816L165.559 1L157.331 40.0403L149.103 42.3144L140.875 25.258L132.647 46.1047L124.419 48L116.191 42.9463L107.963 36.1236L99.7355 38.2714L91.5075 34.4812L83.2795 38.0187L75.0516 42.4407L66.8236 43.1989L58.5957 38.6505L50.3677 36.7553L42.1398 37.8925L33.9118 35.3655L25.6839 26.1425L17.4559 43.578L9.22797 44.336L1 41.3037" stroke="#6146D7" stroke-width="1.5" stroke-linecap="round" stroke-linejoin="round"/>
</svg>
