<svg width="8" height="16" viewBox="0 0 8 16" fill="none" xmlns="http://www.w3.org/2000/svg">
<path d="M0.266295 14.8788C0.564654 15.1621 1.03266 15.1621 1.33102 14.8788L7.55866 8.86862C7.84038 8.60089 7.99988 8.22927 7.99988 7.84062C7.99988 7.45198 7.84038 7.08036 7.55866 6.81262L1.28593 0.758078C0.995022 0.478078 0.52375 0.474442 0.228477 0.750805C0.0839763 0.883892 0.00116301 1.07096 -0.00021553 1.26741C-0.00159454 1.46385 0.0785851 1.65207 0.221204 1.78717L5.96157 7.32681C6.10254 7.46068 6.18237 7.64657 6.18237 7.84099C6.18237 8.0354 6.10254 8.22129 5.96157 8.35517L0.267022 13.8512C0.126085 13.9849 0.0462751 14.1707 0.0462751 14.365C0.0462751 14.5593 0.126085 14.7451 0.267022 14.8788" fill="#6146D7"/>
</svg>
