<svg width="8" height="15" viewBox="0 0 8 15" fill="none" xmlns="http://www.w3.org/2000/svg">
<path d="M7.73383 0.212503C7.43547 -0.0708344 6.96746 -0.0708344 6.6691 0.212503L0.441464 6.22268C0.159743 6.49042 0.000244141 6.86204 0.000244141 7.25069C0.000244141 7.63933 0.159743 8.01095 0.441464 8.27868L6.71419 14.3332C7.0051 14.6132 7.47637 14.6169 7.77165 14.3405C7.91615 14.2074 7.99896 14.0203 8.00034 13.8239C8.00172 13.6275 7.92154 13.4392 7.77892 13.3041L2.03855 7.7645C1.89758 7.63063 1.81775 7.44474 1.81775 7.25032C1.81775 7.05591 1.89758 6.87002 2.03855 6.73614L7.7331 1.24014C7.87404 1.10639 7.95385 0.920621 7.95385 0.726321C7.95385 0.532022 7.87404 0.346253 7.7331 0.212503" fill="#6146D7"/>
</svg>
