<svg width="50" height="50" viewBox="0 0 50 50" fill="none" xmlns="http://www.w3.org/2000/svg">
<path fill-rule="evenodd" clip-rule="evenodd" d="M25 50C38.8071 50 50 38.8071 50 25C50 11.1929 38.8071 0 25 0C11.1929 0 0 11.1929 0 25C0 38.8071 11.1929 50 25 50Z" fill="#F6F2FE"/>
<rect x="17" y="16" width="16" height="16" rx="2" stroke="#6146D7" stroke-width="2" stroke-linecap="round" stroke-linejoin="round"/>
<rect x="22" y="21" width="6" height="6" stroke="#6146D7" stroke-width="2" stroke-linecap="round" stroke-linejoin="round"/>
<path d="M22 13V16" stroke="#6146D7" stroke-width="2" stroke-linecap="round" stroke-linejoin="round"/>
<path d="M28 13V16" stroke="#6146D7" stroke-width="2" stroke-linecap="round" stroke-linejoin="round"/>
<path d="M22 32V35" stroke="#6146D7" stroke-width="2" stroke-linecap="round" stroke-linejoin="round"/>
<path d="M28 32V35" stroke="#6146D7" stroke-width="2" stroke-linecap="round" stroke-linejoin="round"/>
<path d="M33 21H36" stroke="#6146D7" stroke-width="2" stroke-linecap="round" stroke-linejoin="round"/>
<path d="M33 26H36" stroke="#6146D7" stroke-width="2" stroke-linecap="round" stroke-linejoin="round"/>
<path d="M14 21H17" stroke="#6146D7" stroke-width="2" stroke-linecap="round" stroke-linejoin="round"/>
<path d="M14 26H17" stroke="#6146D7" stroke-width="2" stroke-linecap="round" stroke-linejoin="round"/>
</svg>
