<svg width="50" height="50" viewBox="0 0 50 50" fill="none" xmlns="http://www.w3.org/2000/svg">
<path fill-rule="evenodd" clip-rule="evenodd" d="M25 50C38.8071 50 50 38.8071 50 25C50 11.1929 38.8071 0 25 0C11.1929 0 0 11.1929 0 25C0 38.8071 11.1929 50 25 50Z" fill="#F6F2FE"/>
<path d="M25 14V36" stroke="#6146D7" stroke-width="2" stroke-linecap="round" stroke-linejoin="round"/>
<path d="M30 18H22.5C20.567 18 19 19.567 19 21.5C19 23.433 20.567 25 22.5 25H27.5C29.433 25 31 26.567 31 28.5C31 30.433 29.433 32 27.5 32H19" stroke="#6146D7" stroke-width="2" stroke-linecap="round" stroke-linejoin="round"/>
</svg>
