<svg width="50" height="50" viewBox="0 0 50 50" fill="none" xmlns="http://www.w3.org/2000/svg">
<path fill-rule="evenodd" clip-rule="evenodd" d="M25 50C38.8071 50 50 38.8071 50 25C50 11.1929 38.8071 0 25 0C11.1929 0 0 11.1929 0 25C0 38.8071 11.1929 50 25 50Z" fill="#F6F2FE"/>
<path d="M22.2873 33.9578C22.8163 33.7991 23.1165 33.2416 22.9578 32.7127C22.7991 32.1837 22.2416 31.8835 21.7127 32.0422L22.2873 33.9578ZM15.2425 29.0299C14.7067 28.8959 14.1638 29.2217 14.0299 29.7575C13.8959 30.2933 14.2217 30.8362 14.7575 30.9701L15.2425 29.0299ZM29 36V37C29.5522 37 30 36.5523 30 36H29ZM29 32.13L28.003 32.0516C28.001 32.0777 28 32.1038 28 32.13H29ZM28.06 29.52L27.9492 28.5262C27.57 28.5684 27.2479 28.8228 27.1189 29.1818C26.9898 29.5409 27.0764 29.9421 27.342 30.2161L28.06 29.52ZM34.5 22.52H35.5V22.5198L34.5 22.52ZM33 18.77L32.0631 18.4204C31.9293 18.7789 32.0118 19.1824 32.2757 19.4595L33 18.77ZM32.91 15L33.8291 14.606C33.712 14.3328 33.4793 14.1258 33.1943 14.0413L32.91 15ZM29 16.48L28.7384 17.4452C29.0178 17.5209 29.3163 17.4718 29.5568 17.3106L29 16.48ZM22 16.48L21.4432 17.3106C21.6836 17.4718 21.9821 17.5209 22.2615 17.4452L22 16.48ZM18.09 15L17.8056 14.0413C17.5206 14.1258 17.2879 14.3328 17.1708 14.606L18.09 15ZM18 18.77L18.7242 19.4595C18.9881 19.1824 19.0706 18.7789 18.9368 18.4204L18 18.77ZM16.5 22.55H17.5L17.4999 22.5447L16.5 22.55ZM22.94 29.55L23.6586 30.2454C23.9222 29.973 24.0091 29.5749 23.883 29.2173C23.7569 28.8598 23.4394 28.6044 23.0632 28.5576L22.94 29.55ZM22 32.13H23C23 32.1066 22.9991 32.0832 22.9975 32.0598L22 32.13ZM22 36H21C21 36.5523 21.4477 37 22 37V36ZM21.7127 32.0422C20.5764 32.3831 19.8229 32.3817 19.306 32.2607C18.802 32.1427 18.4286 31.8894 18.0821 31.5429C17.9032 31.364 17.7354 31.1642 17.5569 30.9406C17.3907 30.7324 17.1888 30.4689 16.9956 30.2422C16.6049 29.7835 16.0584 29.2338 15.2425 29.0299L14.7575 30.9701C14.9416 31.0162 15.1451 31.154 15.4731 31.5391C15.6394 31.7342 15.789 31.9317 15.9939 32.1883C16.1864 32.4295 16.4093 32.6985 16.6679 32.9571C17.1964 33.4856 17.8855 33.9823 18.8502 34.2081C19.8021 34.4308 20.9236 34.3669 22.2873 33.9578L21.7127 32.0422ZM30 36V32.13H28V36H30ZM29.9969 32.2084C30.0953 30.9576 29.6513 29.7248 28.7779 28.8239L27.342 30.2161C27.8156 30.7046 28.0564 31.3732 28.003 32.0516L29.9969 32.2084ZM28.1707 30.5138C29.7969 30.3326 31.652 29.9201 33.101 28.7016C34.5987 27.4423 35.5 25.4663 35.5 22.52H33.5C33.5 25.0337 32.7512 26.3827 31.8139 27.1709C30.8279 27.9999 29.463 28.3574 27.9492 28.5262L28.1707 30.5138ZM35.5 22.5198C35.4997 20.867 34.8639 19.2776 33.7242 18.0805L32.2757 19.4595C33.0614 20.2848 33.4997 21.3807 33.5 22.5202L35.5 22.5198ZM33.9368 19.1196C34.4826 17.6572 34.444 16.0408 33.8291 14.606L31.9908 15.3939C32.4031 16.3559 32.429 17.4398 32.0631 18.4204L33.9368 19.1196ZM32.91 15C33.1943 14.0413 33.1934 14.041 33.1924 14.0407C33.192 14.0406 33.1911 14.0403 33.1904 14.0401C33.1891 14.0397 33.1877 14.0394 33.1864 14.039C33.1837 14.0382 33.1809 14.0374 33.178 14.0366C33.1722 14.035 33.1662 14.0333 33.1598 14.0317C33.147 14.0283 33.133 14.0249 33.1178 14.0214C33.0872 14.0145 33.0518 14.0075 33.0114 14.001C32.9305 13.9881 32.8303 13.9776 32.7104 13.9743C32.4701 13.9677 32.1553 13.9902 31.762 14.0775C30.9772 14.2517 29.8856 14.6824 28.4432 15.6494L29.5568 17.3106C30.8443 16.4476 31.7077 16.1383 32.1954 16.03C32.4384 15.976 32.5892 15.9717 32.6554 15.9735C32.6888 15.9744 32.7021 15.977 32.6964 15.9761C32.6936 15.9756 32.6862 15.9743 32.6743 15.9716C32.6684 15.9703 32.6613 15.9686 32.6532 15.9664C32.6491 15.9654 32.6448 15.9642 32.6402 15.9629C32.6379 15.9623 32.6355 15.9616 32.6331 15.9609C32.6319 15.9606 32.6306 15.9602 32.6294 15.9598C32.6288 15.9597 32.6278 15.9594 32.6275 15.9593C32.6265 15.959 32.6256 15.9587 32.91 15ZM29.2615 15.5148C26.7982 14.8472 24.2017 14.8472 21.7384 15.5148L22.2615 17.4452C24.3822 16.8704 26.6177 16.8704 28.7384 17.4452L29.2615 15.5148ZM22.5568 15.6494C21.1143 14.6824 20.0227 14.2517 19.2379 14.0775C18.8447 13.9902 18.5298 13.9677 18.2895 13.9743C18.1696 13.9776 18.0694 13.9881 17.9885 14.001C17.9481 14.0075 17.9127 14.0145 17.8822 14.0214C17.8669 14.0249 17.8529 14.0283 17.8401 14.0317C17.8338 14.0333 17.8277 14.035 17.8219 14.0366C17.819 14.0374 17.8162 14.0382 17.8135 14.039C17.8122 14.0394 17.8108 14.0397 17.8095 14.0401C17.8088 14.0403 17.8079 14.0406 17.8075 14.0407C17.8066 14.041 17.8056 14.0413 18.09 15C18.3743 15.9587 18.3734 15.959 18.3724 15.9593C18.3721 15.9594 18.3711 15.9597 18.3705 15.9598C18.3693 15.9602 18.368 15.9606 18.3668 15.9609C18.3644 15.9616 18.362 15.9623 18.3597 15.9629C18.3551 15.9642 18.3508 15.9654 18.3467 15.9664C18.3386 15.9686 18.3315 15.9703 18.3256 15.9716C18.3137 15.9743 18.3063 15.9756 18.3035 15.9761C18.2978 15.977 18.3111 15.9744 18.3445 15.9735C18.4108 15.9717 18.5615 15.976 18.8045 16.03C19.2922 16.1383 20.1556 16.4476 21.4432 17.3106L22.5568 15.6494ZM17.1708 14.606C16.5559 16.0408 16.5173 17.6572 17.0631 19.1196L18.9368 18.4204C18.5709 17.4398 18.5968 16.3559 19.0091 15.3939L17.1708 14.606ZM17.2757 18.0805C16.1275 19.2864 15.4911 20.8902 15.5 22.5553L17.4999 22.5447C17.4938 21.3967 17.9326 20.291 18.7242 19.4595L17.2757 18.0805ZM15.5 22.55C15.5 25.4795 16.4032 27.444 17.8989 28.7016C19.3444 29.9171 21.1955 30.341 22.8167 30.5424L23.0632 28.5576C21.5444 28.369 20.1755 28.0029 19.186 27.1709C18.2467 26.381 17.5 25.0405 17.5 22.55H15.5ZM22.2214 28.8546C21.3585 29.7462 20.9154 30.9625 21.0024 32.2002L22.9975 32.0598C22.9503 31.3886 23.1906 30.729 23.6586 30.2454L22.2214 28.8546ZM21 32.13V36H23V32.13H21ZM29 35H22V37H29V35Z" fill="#6146D7"/>
</svg>
