<svg width="172" height="32" viewBox="0 0 172 32" fill="none" xmlns="http://www.w3.org/2000/svg">
<path d="M171 28.0967L166.253 25.7581L160.352 23.0967L154.45 22.5322L148.548 19.9516L142.646 23.258L136.744 26.5644L130.842 26.4838L124.94 23.9032L119.038 1L113.136 25.9193L107.234 27.3709L101.332 16.4839L95.4305 29.7902L89.5286 31L83.6267 27.7742L77.7248 23.4194L71.8229 24.7903L65.921 22.371L60.0191 24.629L54.1172 27.4515L48.2153 27.9354L42.3134 25.0322L36.4114 23.8225L30.5096 24.5484L24.6076 22.9354L18.7057 17.0484L12.8038 28.1774L6.90192 28.6613L1 26.7258" stroke="#6146D7" stroke-width="1.5" stroke-linecap="round" stroke-linejoin="round"/>
</svg>
