<svg width="74" height="206" viewBox="0 0 74 206" fill="none" xmlns="http://www.w3.org/2000/svg">
<path fill-rule="evenodd" clip-rule="evenodd" d="M37 72C56.33 72 72 56.33 72 37C72 17.67 56.33 2 37 2C17.67 2 2 17.67 2 37C2 56.33 17.67 72 37 72Z" stroke="#AE9BFF" stroke-width="4"/>
<path d="M37.4863 27.4805C36.8483 27.4805 36.3424 27.2891 35.9688 26.9062C35.6042 26.5234 35.4219 25.9629 35.4219 25.2246C35.4219 24.8145 35.4674 24.4727 35.5586 24.1992C35.6589 23.9167 35.7956 23.6934 35.9688 23.5293C36.151 23.3561 36.3698 23.2331 36.625 23.1602C36.8802 23.0781 37.1719 23.0371 37.5 23.0371C38.1836 23.0371 38.7031 23.2103 39.0586 23.5566C39.4141 23.903 39.5918 24.459 39.5918 25.2246C39.5918 25.9355 39.4095 26.4915 39.0449 26.8926C38.6895 27.2845 38.1699 27.4805 37.4863 27.4805ZM35.6953 30.1738H39.1543V49H35.6953V30.1738Z" fill="#FBFBFB"/>
<rect x="35" y="100" width="5" height="106" fill="white"/>
</svg>
