<svg width="32768" height="9239" viewBox="0 0 32768 9239" fill="none" xmlns="http://www.w3.org/2000/svg">
<g id="lines">
<path id="fill" opacity="0.54546" d="M32768 3458.84C32418.9 3458.84 32418.9 2725.59 32069.8 2725.59C31720.8 2725.59 31720.8 1135.44 31371.7 1135.44C31022.6 1135.44 31022.6 1916.45 30673.5 1916.45C30324.4 1916.45 30324.4 268.947 29975.4 268.947C29626.3 268.947 29626.3 813.713 29277.2 813.713C28928.1 813.713 29043.8 1782.62 28694.8 1782.62C28345.7 1782.62 28230 3811.56 27880.9 3811.56C27531.8 3811.56 27531.8 1137.86 27182.7 1137.86C26833.6 1137.86 26833.6 3073.5 26484.6 3073.5C26135.5 3073.5 26135.5 1782.62 25786.4 1782.62C25437.3 1782.62 25641.9 2447.46 25292.8 2447.46C24943.7 2447.46 24739.2 63.4094 24390.1 63.4094C24041 63.4094 24041 316.409 23691.9 316.409C23342.8 316.409 23342.8 1782.62 22993.8 1782.62C22644.7 1782.62 22644.7 3145.47 22295.6 3145.47C21946.5 3145.47 21946.5 1584.11 21597.4 1584.11C21248.4 1584.11 21248.4 268.947 20899.3 268.947C20550.2 268.947 20550.2 671.31 20201.1 671.31C19852 671.31 19852 1265.95 19503 1265.95C19153.9 1265.95 19153.9 2693.57 18804.8 2693.57C18455.7 2693.57 18455.7 3260.64 18106.6 3260.64C17757.6 3260.64 17757.6 3204.31 17408.5 3204.31C17059.4 3204.31 17059.4 5241.66 16710.3 5241.66C16361.2 5241.66 16361.2 4278.04 16012.2 4278.04C15663.1 4278.04 15663.1 5670.4 15314 5670.4C14964.9 5670.4 14964.9 5405.55 14615.8 5405.55C14266.8 5405.55 14266.8 4001.79 13917.7 4001.79C13568.6 4001.79 13568.6 2719.73 13219.5 2719.73C12870.4 2719.73 12870.4 1782.62 12521.4 1782.62C12172.3 1782.62 12172.3 671.31 11823.2 671.31C11474.1 671.31 11474.1 1137.86 11125 1137.86C10776 1137.86 10776 60.9739 10426.9 60.9739C10077.8 60.9739 10077.8 1786.44 9728.73 1786.44C9379.65 1786.44 9379.65 612.549 9030.57 612.549C8681.49 612.549 8681.49 22.7556 8332.41 22.7556C7983.33 22.7556 7983.33 211.942 7634.25 211.942C7285.17 211.942 7285.17 811.998 6936.09 811.998C6587.01 811.998 6587.01 557.334 6237.93 557.334C5888.85 557.334 5888.85 1265.95 5539.77 1265.95C5190.69 1265.95 5190.69 60.9739 4841.61 60.9739C4492.53 60.9739 4492.53 2447.46 4143.45 2447.46C3794.37 2447.46 3794.37 612.549 3445.29 612.549C3096.21 612.549 3096.21 1916.45 2747.13 1916.45C2398.05 1916.45 2398.05 1073.83 2048.97 1073.83C1699.89 1073.83 1699.89 1920.57 1350.81 1920.57C1001.73 1920.57 1001.73 1073.83 652.65 1073.83C303.569 1073.83 303.569 3467.26 -45.5111 3467.26V9112.51C-45.5111 9182.23 10.9917 9238.76 80.6944 9238.76H32641.8C32711.5 9238.76 32768 9182.23 32768 9112.51V3458.84Z" fill="url(#paint0_linear)"/>
<path id="line" opacity="0.546479" d="M32768 3458.84C32418.9 3458.84 32418.9 2693.57 32069.8 2693.57C31720.8 2693.57 31720.8 1137.86 31371.7 1137.86C31022.6 1137.86 31022.6 1920.57 30673.5 1920.57C30324.4 1920.57 30324.4 269.482 29975.4 269.482C29626.3 269.482 29626.3 811.998 29277.2 811.998C28928.1 811.998 29043.8 1786.44 28694.8 1786.44C28345.7 1786.44 28230 3811.56 27880.9 3811.56C27531.8 3811.56 27531.8 1073.83 27182.7 1073.83C26833.6 1073.83 26833.6 3073.5 26484.6 3073.5C26135.5 3073.5 26135.5 1786.44 25786.4 1786.44C25437.3 1786.44 25641.9 2452.73 25292.8 2452.73C24943.7 2452.73 24739.2 63.4977 24390.1 63.4977C24041 63.4977 24041 317.047 23691.9 317.047C23342.8 317.047 23342.8 1786.44 22993.8 1786.44C22644.7 1786.44 22644.7 3152.25 22295.6 3152.25C21946.5 3152.25 21946.5 1587.5 21597.4 1587.5C21248.4 1587.5 21248.4 269.482 20899.3 269.482C20550.2 269.482 20550.2 672.719 20201.1 672.719C19852 672.719 19852 1268.65 19503 1268.65C19153.9 1268.65 19153.9 2699.37 18804.8 2699.37C18455.7 2699.37 18455.7 3267.67 18106.6 3267.67C17757.6 3267.67 17757.6 3211.23 17408.5 3211.23C17059.4 3211.23 17059.4 5230.35 16710.3 5230.35C16361.2 5230.35 16361.2 4278.04 16012.2 4278.04C15663.1 4278.04 15663.1 5682.67 15314 5682.67C14964.9 5682.67 14964.9 5417.25 14615.8 5417.25C14266.8 5417.25 14266.8 4010.43 13917.7 4010.43C13568.6 4010.43 13568.6 2725.59 13219.5 2725.59C12870.4 2725.59 12870.4 1786.44 12521.4 1786.44C12172.3 1786.44 12172.3 672.719 11823.2 672.719C11474.1 672.719 11474.1 1137.86 11125 1137.86C10776 1137.86 10776 61.057 10426.9 61.057C10077.8 61.057 10077.8 1786.44 9728.73 1786.44C9379.65 1786.44 9379.65 585.99 9030.57 585.99C8681.49 585.99 8681.49 22.7556 8332.41 22.7556C7983.33 22.7556 7983.33 212.353 7634.25 212.353C7285.17 212.353 7285.17 813.713 6936.09 813.713C6587.01 813.713 6587.01 558.495 6237.93 558.495C5888.85 558.495 5888.85 1268.65 5539.77 1268.65C5190.69 1268.65 5190.69 63.4977 4841.61 63.4977C4492.53 63.4977 4492.53 2452.73 4143.45 2452.73C3794.37 2452.73 3794.37 613.831 3445.29 613.831C3096.21 613.831 3096.21 1920.57 2747.13 1920.57C2398.05 1920.57 2398.05 1086.3 2048.97 1086.3C1699.89 1086.3 1699.89 1916.45 1350.81 1916.45C1001.73 1916.45 1001.73 1076.12 652.65 1076.12C303.57 1076.12 303.569 3453.97 -45.5111 3453.97" stroke="#6146D7" stroke-width="2"/>
</g>
<defs>
<linearGradient id="paint0_linear" x1="51576.3" y1="-11719.7" x2="51576.3" y2="8061.23" gradientUnits="userSpaceOnUse">
<stop stop-color="#6146D7"/>
<stop offset="1" stop-color="#27253F"/>
</linearGradient>
</defs>
</svg>
