<svg width="154" height="48" viewBox="0 0 154 48" fill="none" xmlns="http://www.w3.org/2000/svg">
<path fill-rule="evenodd" clip-rule="evenodd" d="M41.5411 38.8342C41.1885 41.3504 39.5218 43.4894 37.1657 44.4496C36.0123 44.931 34.7613 45.0741 33.5119 44.931C32.2207 44.7684 30.977 44.3422 29.8581 43.6788C28.1249 42.7193 26.3981 41.2232 24.3782 39.0278C27.5498 35.1411 29.472 31.5796 30.1936 28.4085C30.5065 27.0715 30.5881 25.691 30.4347 24.3266C30.2565 23.1524 29.8118 22.0344 29.1348 21.0579C27.6443 18.895 25.1438 17.6428 22.3583 17.6428C19.5679 17.6428 17.0674 18.9438 15.5769 21.0417C14.9024 22.0135 14.4579 23.1257 14.2769 24.2941C14.0704 25.6559 14.148 27.0456 14.505 28.3759C15.2218 31.5471 17.1928 35.1411 20.3204 39.0278C18.3494 41.2232 16.5575 42.7193 14.8308 43.6788C13.7085 44.3438 12.4607 44.7701 11.1656 44.931C9.929 45.0707 8.6769 44.9089 7.51671 44.4594C5.1602 43.5007 3.49149 41.3641 3.13477 38.8489C2.97662 37.5796 3.1275 36.2909 3.57459 35.0923C3.70491 34.6044 3.94926 34.1328 4.1936 33.5474C4.5194 32.783 4.91035 31.9699 5.3013 31.1405L5.35017 31.043C8.71541 23.7866 12.2458 16.6076 15.9385 9.51169L16.0851 9.21897C16.4598 8.48716 16.8507 7.72284 17.2417 7.00729C17.6024 6.25278 18.0507 5.54321 18.5774 4.8932C19.5874 3.75484 20.9394 3.12061 22.4218 3.12061C23.9042 3.12061 25.2562 3.75484 26.2662 4.8932C26.7875 5.52743 27.2273 6.24297 27.6182 7.00729C28.0092 7.7391 28.4001 8.50342 28.7748 9.21897L28.9214 9.51169C32.565 16.6491 36.0734 23.8546 39.4446 31.1243V31.1731C39.8192 31.9374 40.1613 32.7993 40.5523 33.5636C40.7803 34.1328 41.0247 34.6207 41.1713 35.0923C41.546 36.3445 41.6926 37.5479 41.4971 38.7838L41.5411 38.8342ZM22.3582 36.5771C19.76 33.3133 18.0772 30.2414 17.499 27.6491C17.2579 26.5433 17.2106 25.5838 17.3556 24.7219C17.4496 23.9993 17.7118 23.3087 18.1212 22.7054C19.0334 21.4093 20.5647 20.5913 22.3566 20.5913C24.1321 20.5913 25.7122 21.3605 26.5756 22.7054C26.9503 23.2811 27.2435 23.9544 27.3412 24.7219C27.4715 25.5838 27.439 26.5921 27.1946 27.6491C26.6082 30.1926 24.9303 33.2645 22.3403 36.5771H22.3582ZM44.0399 34.0809C43.802 33.5052 43.561 32.8824 43.3199 32.3538C42.9354 31.4919 42.551 30.6723 42.2154 29.9064L42.1666 29.8576C38.7994 22.5409 35.2559 15.3064 31.5391 8.16042L31.3958 7.87258C31.0007 7.12944 30.6152 6.38131 30.2392 5.62838C29.7603 4.76648 29.2814 3.85579 28.5125 2.99389C26.9682 1.05705 24.7577 0 22.4039 0C19.9979 0 17.8346 1.05705 16.2463 2.87843C15.5263 3.74358 14.9969 4.65589 14.5164 5.52105C14.1319 6.28863 13.7459 7.05784 13.3631 7.77663L13.2164 8.06447C9.51867 15.2524 5.91213 22.5542 2.59554 29.7584L2.54667 29.8559C2.20947 30.6203 1.82503 31.4334 1.43897 32.2953C1.19462 32.8157 0.958419 33.4011 0.717331 34.0191C0.0901766 35.7917 -0.100413 37.483 0.139046 39.2068C0.663665 42.7813 3.04294 45.8123 6.3943 47.1753C7.62681 47.6907 8.95134 47.9507 10.2875 47.9396C10.672 47.9396 11.1509 47.8908 11.537 47.842C13.2343 47.6234 14.8699 47.0647 16.3457 46.1996C18.3168 45.0937 20.1901 43.5 22.3077 41.207C24.4091 43.5 26.3476 45.0937 28.2698 46.1996C30.1128 47.2728 32.1967 47.8657 34.3296 47.9234C35.6653 47.9234 37.0174 47.6794 38.2228 47.1428C41.5785 45.8093 43.9405 42.7357 44.4618 39.1742C44.8364 37.4992 44.641 35.8242 44.022 34.0354L44.0399 34.0809ZM91.9806 17.1846C93.375 17.1846 94.0983 17.4253 94.0983 17.4253V21.6974C94.0983 21.6974 90.2506 20.4013 87.843 23.1366V35.761H83.233V17.6643H87.1263C87.5107 17.6643 87.8007 18.0009 87.8007 18.3359V19.1051C88.6673 18.0969 90.5406 17.1862 91.9839 17.1862L91.9806 17.1846ZM104.483 31.8252C102.704 31.8252 101.306 30.9145 100.59 29.8575V23.4257C101.306 22.4663 102.847 21.458 104.483 21.458C107.562 21.458 109.916 23.377 109.916 26.6408C109.916 29.9063 107.56 31.8252 104.483 31.8252ZM105.252 17.1841C102.079 17.1841 100.588 19.1031 100.588 19.1031V8.97656H95.9716V35.7118H99.8648C100.233 35.7049 100.531 35.4094 100.539 35.0418V34.2254C100.539 34.2254 102.03 36.1931 105.205 36.1931C110.443 36.1931 114.532 32.1601 114.532 26.6895C114.581 21.2172 110.492 17.1841 105.252 17.1841ZM132.998 25.0116V35.761H128.378V25.5369C128.378 22.5609 127.417 21.3607 124.821 21.3607C123.428 21.3607 121.986 22.0812 121.071 23.1366V35.7138H116.454V17.6773H120.11C120.494 17.6773 120.782 18.014 120.782 18.349V19.1182C122.134 17.7261 123.91 17.1992 125.702 17.1992C127.722 17.1992 129.4 17.7733 130.752 18.923C132.381 20.2695 133.016 21.9966 133.016 25.0214L132.998 25.0116ZM143.912 31.8252C142.132 31.8252 140.736 30.9145 140.016 29.8575V23.4257C140.736 22.4663 142.275 21.458 143.912 21.458C146.988 21.458 149.345 23.377 149.345 26.6408C149.345 29.9063 146.988 31.8252 143.912 31.8252ZM144.678 17.1841C141.506 17.1841 140.016 19.1031 140.016 19.1031V8.97656H135.399V35.7118H139.292C139.661 35.7058 139.96 35.41 139.968 35.0418V34.2254C139.968 34.2254 141.451 36.1931 144.627 36.1931C149.873 36.1931 153.945 32.1601 153.945 26.6895C153.945 21.2172 149.856 17.1841 144.66 17.1841H144.678ZM75.73 35.712H80.3449V17.6641H75.73V35.712ZM68.2774 29.9065C67.5443 30.9635 66.1108 31.8742 64.3841 31.8742C61.3054 31.8742 58.9434 29.9553 58.9434 26.6898C58.9434 23.4259 61.2891 21.5054 64.3678 21.5054C66.0457 21.5054 67.5769 22.4648 68.2611 23.4731V29.9065H68.2774ZM68.2774 18.3358V19.105C68.2774 19.105 66.7787 17.186 63.6022 17.186C58.3569 17.186 54.2682 21.1703 54.2682 26.6897C54.2682 32.162 58.2918 36.1934 63.5859 36.1934C66.8113 36.1934 68.2448 34.2257 68.2448 34.2257V35.042C68.2389 35.2211 68.3072 35.3946 68.4336 35.5217C68.56 35.6488 68.7333 35.7182 68.9127 35.7137H72.8059V17.6772H68.9469C68.5786 17.6849 68.2819 17.9811 68.2741 18.3488L68.2774 18.3358ZM81.1641 12.0506C81.165 12.8784 80.8355 13.6724 80.2486 14.2571C79.6617 14.8418 78.8657 15.169 78.0365 15.1664C77.2069 15.1686 76.4106 14.8408 75.8237 14.2555C75.2368 13.6701 74.9076 12.8755 74.9089 12.0473C74.9001 11.2166 75.2267 10.4173 75.8152 9.8298C76.4037 9.24232 77.2043 8.91619 78.0365 8.92498C79.817 8.97376 81.1641 10.3658 81.1641 12.0473V12.0506Z" fill="white"/>
</svg>
