<svg width="37" height="30" viewBox="0 0 37 30" fill="none" xmlns="http://www.w3.org/2000/svg">
<path fill-rule="evenodd" clip-rule="evenodd" d="M11.6365 29.9988C7.35067 29.9988 3.36083 28.7451 0 26.5964C0.594467 26.6664 1.19633 26.7026 1.81053 26.7026C5.36747 26.7026 8.64073 25.4902 11.2381 23.4603C7.91677 23.3978 5.1134 21.1979 4.14647 18.198C5.285 18.4143 6.45702 18.3673 7.57513 18.0605C4.10207 17.3605 1.48617 14.2982 1.48617 10.6358V10.5483C2.54358 11.1307 3.7217 11.4519 4.9247 11.4858C2.82193 10.0982 1.55197 7.72903 1.54783 5.18603C1.54783 3.79859 1.92277 2.49865 2.5752 1.37369C6.46251 6.12189 12.1415 8.99354 18.2225 9.28586C18.091 8.72059 18.0247 8.14172 18.0252 7.56094C18.0252 3.38736 21.423 0 25.6163 0C27.7993 0 29.7727 0.919962 31.1577 2.39115C32.8545 2.058 34.4837 1.43679 35.9763 0.553727C35.4045 2.3153 34.2183 3.805 32.6402 4.74355C34.1435 4.56542 35.6127 4.16318 37 3.54985C35.9779 5.07462 34.6958 6.40243 33.2137 7.47094C33.226 7.79593 33.2346 8.12341 33.2346 8.4509C33.2346 18.463 25.6003 30 11.6365 30" fill="#FEFEFE"/>
</svg>
