<svg width="127" height="34" viewBox="0 0 127 34" fill="none" xmlns="http://www.w3.org/2000/svg">
<path fill-rule="evenodd" clip-rule="evenodd" d="M17.3143 0H11.9999C11.9885 7.17886 11.9771 11.8288 11.9673 19.0076C9.68294 12.0036 7.39694 7.36667 5.10442 0H0V33.6568C1.72264 33.4139 3.56577 33.1791 5.29167 32.9557L5.30795 14.5633C7.68187 21.4864 9.14074 25.5729 11.5082 32.151C13.3643 31.9406 15.3996 31.6815 17.259 31.4937C17.2753 20.9958 17.2964 10.4979 17.3143 0ZM37.1719 0H22.4431L22.3845 31.0501C27.3098 30.6065 32.2417 30.2406 37.1768 29.9589L37.1849 24.7585C33.9773 24.9528 30.9065 25.1584 27.7088 25.3737L27.725 17.5051C30.0615 17.4647 32.5282 17.5003 34.9184 17.4598C34.9184 15.9379 34.9233 13.7554 34.9266 12.2335C32.5657 12.2756 30.0745 12.2821 27.7462 12.3242L27.7625 5.23276C29.4612 5.21433 31.16 5.20786 32.8588 5.21333H33.6077C34.8126 5.21333 36.0012 5.21333 37.2224 5.20038C37.2386 3.68657 37.1898 1.51381 37.1898 0H37.1719ZM57.0376 0.0225895H40.6237C40.6188 1.5283 40.6171 3.69297 40.6139 5.19545L41.3205 5.17926C42.0321 5.17926 42.7452 5.17926 43.4567 5.19545H46.14L46.1075 29.4974C47.8829 29.4329 49.6588 29.3789 51.4349 29.3354L51.4577 5.16307L57.0181 5.14688V0.0161133L57.0376 0.0225895ZM75.2557 0H60.4716L60.4651 29.227C62.2214 29.2194 63.9777 29.2227 65.734 29.2368C65.734 25.1033 65.734 21.3293 65.7307 17.1943C66.7196 17.1982 67.7084 17.1971 68.6973 17.191C69.3974 17.1878 70.1024 17.1846 70.8009 17.1846C71.5206 17.1846 72.2338 17.1878 72.9306 17.1975L72.9274 12.0295C72.2571 12.0222 71.5868 12.019 70.9165 12.0198C70.1887 12.0198 69.4511 12.0198 68.7217 12.0247L66.5448 12.0295H65.7307C65.7274 9.37105 65.7274 7.86857 65.7274 5.21333C66.8856 5.21509 68.0438 5.21509 69.202 5.21333H70.9605C72.3901 5.21333 73.8196 5.21333 75.2622 5.21981L75.2557 0ZM78.7075 0.0244141C78.7238 9.86013 78.6749 19.6958 78.6863 29.5332C83.4146 29.7113 88.3823 29.9056 93.1041 30.2294L93.0959 25.0322C90.1065 24.8541 86.995 24.6598 84.0057 24.5303C83.9894 16.1113 84.0382 8.46937 84.0252 0.0503188H78.7075V0.0244141ZM97.4677 0.050293L97.5279 30.5693C99.2761 30.7016 101.024 30.8419 102.771 30.9903C102.771 20.6931 102.787 10.3636 102.771 0.050293H97.4628H97.4677ZM107.33 0.050293C109.446 5.19886 111.4 10.3474 113.549 15.8198C111.331 21.0016 109.073 26.1665 106.776 31.3141C108.632 31.5084 110.554 31.7674 112.41 31.9779C113.729 28.7398 114.95 26.2465 116.285 22.9112C117.604 26.457 118.809 29.2093 120.144 32.8684C121.984 33.1112 124.393 33.4512 126.233 33.7103C123.982 27.7559 121.67 21.8244 119.297 15.917C121.544 10.6389 123.84 5.58744 126.168 0.0664834H120.372C118.923 3.48267 117.946 5.68458 116.562 8.92267C115.44 5.95816 114.301 3.00064 113.142 0.050293H107.33Z" fill="#FEFEFE"/>
</svg>
