<svg width="135" height="44" viewBox="0 0 135 44" fill="none" xmlns="http://www.w3.org/2000/svg">
<path fill-rule="evenodd" clip-rule="evenodd" d="M33.1996 15.5542H17.3084V20.2074H28.6173C28.0651 26.7304 22.6104 29.5123 17.4612 29.5123C10.8668 29.5123 5.12424 24.3634 5.12424 17.1401C5.12424 10.1081 10.6024 4.67966 17.4759 4.67966C22.7631 4.67966 25.8914 8.04855 25.8914 8.04855L29.1666 4.67966C29.1666 4.67966 24.9676 0 17.3011 0C7.54904 0 0 8.19419 0 17.043C0 25.7153 7.10256 34.1729 17.5581 34.1729C26.7521 34.1729 33.4845 27.9058 33.4845 18.6377C33.4845 16.6811 33.1908 15.5484 33.1908 15.5484L33.1996 15.5542ZM46.6439 12.1793C40.1817 12.1793 35.5406 17.2106 35.5406 23.0657C35.5406 29.009 40.0348 34.1286 46.7173 34.1286C52.7683 34.1286 57.7178 29.5239 57.7178 23.1834C57.7178 15.9013 51.9459 12.1499 46.6439 12.1499V12.1793ZM46.7027 16.4897C49.8751 16.4897 52.8859 19.0495 52.8859 23.1687C52.8859 27.1996 49.8751 29.8329 46.6733 29.8329C43.1485 29.8329 40.3727 27.023 40.3727 23.1392C40.3727 19.329 43.1191 16.4897 46.688 16.4897H46.7027ZM70.6422 12.1647C64.1653 12.1647 59.5389 17.1959 59.5389 23.051C59.5389 28.9944 64.0331 34.1139 70.7009 34.1139C76.7372 34.1139 81.7014 29.5093 81.7014 23.1687C81.7014 15.8866 75.9295 12.1353 70.6275 12.1353L70.6422 12.1647ZM70.701 16.4751C73.8734 16.4751 76.8842 19.0349 76.8842 23.154C76.8842 27.1849 73.8734 29.8182 70.6717 29.8182C67.1468 29.8182 64.3563 27.0084 64.3563 23.1246C64.3563 19.3144 67.1028 16.4751 70.6717 16.4751H70.701ZM94.3174 12.1797C88.3839 12.1797 83.7135 17.3433 83.7135 23.1543C83.7135 29.7597 89.1183 34.1436 94.1999 34.1436C97.3429 34.1436 99.0172 32.8932 100.251 31.4662V33.6287C100.251 37.4096 97.9304 39.6898 94.4349 39.6898C91.0569 39.6898 89.3679 37.1889 88.7805 35.7766L84.536 37.542C86.034 40.7049 89.0742 44.0002 94.4643 44.0002C100.368 44.0002 104.863 40.293 104.863 32.5401V12.5784H100.267V14.7115C98.8424 13.1845 96.8949 12.1885 94.3115 12.1885L94.3174 12.1797ZM94.7433 16.4751C97.6513 16.4751 100.633 18.9466 100.633 23.1687C100.633 27.4497 97.6513 29.8182 94.6699 29.8182C91.4976 29.8182 88.5602 27.2732 88.5602 23.2129C88.5602 18.9907 91.615 16.4751 94.7287 16.4751H94.7433ZM125.057 12.15C119.461 12.15 114.761 16.5781 114.761 23.1099C114.761 30.0242 119.99 34.1287 125.586 34.1287C130.256 34.1287 133.12 31.5836 134.838 29.3034L131.02 26.7731C130.021 28.303 128.376 29.7889 125.615 29.7889C122.501 29.7889 121.077 28.0971 120.196 26.4494L135 20.3442L134.222 18.5642C132.797 15.0482 129.463 12.1206 125.042 12.1206L125.057 12.15ZM125.248 16.3721C127.26 16.3721 128.714 17.4313 129.331 18.7112L119.447 22.8157C119.021 19.6233 122.046 16.3574 125.248 16.3574V16.3721ZM107.992 33.4977H112.52V1.13281H107.997L107.992 33.4977Z" fill="white"/>
</svg>
